<?xml version="1.0" encoding="UTF-8"?>
<svg xmlns="http://www.w3.org/2000/svg" version="1.1" width="300" height="300" viewBox="0 0 300 300"><rect x="0" y="0" width="300" height="300" fill="#ffffff"/><g transform="scale(6.667)"><g transform="translate(0,0)"><path fill-rule="evenodd" d="M9 0L9 1L10 1L10 4L8 4L8 5L10 5L10 7L9 7L9 6L8 6L8 8L6 8L6 9L4 9L4 8L2 8L2 10L1 10L1 11L3 11L3 9L4 9L4 11L8 11L8 12L9 12L9 13L11 13L11 14L10 14L10 15L7 15L7 14L6 14L6 13L7 13L7 12L4 12L4 13L3 13L3 12L1 12L1 14L0 14L0 16L1 16L1 17L2 17L2 19L4 19L4 24L1 24L1 23L2 23L2 21L3 21L3 20L1 20L1 18L0 18L0 20L1 20L1 22L0 22L0 24L1 24L1 25L0 25L0 26L1 26L1 27L0 27L0 28L2 28L2 30L5 30L5 29L7 29L7 30L6 30L6 31L5 31L5 33L9 33L9 34L8 34L8 35L7 35L7 34L6 34L6 35L7 35L7 36L6 36L6 37L7 37L7 36L8 36L8 35L10 35L10 36L11 36L11 34L13 34L13 33L14 33L14 32L16 32L16 33L15 33L15 34L14 34L14 35L16 35L16 34L17 34L17 36L18 36L18 35L19 35L19 34L20 34L20 33L22 33L22 32L20 32L20 30L21 30L21 31L22 31L22 30L23 30L23 33L24 33L24 31L27 31L27 33L30 33L30 32L29 32L29 31L31 31L31 34L30 34L30 35L27 35L27 34L26 34L26 35L25 35L25 36L24 36L24 34L22 34L22 35L20 35L20 37L19 37L19 38L20 38L20 40L19 40L19 39L18 39L18 38L17 38L17 37L14 37L14 36L12 36L12 37L13 37L13 38L16 38L16 41L15 41L15 40L13 40L13 39L12 39L12 38L11 38L11 40L9 40L9 41L8 41L8 43L10 43L10 44L12 44L12 45L13 45L13 44L14 44L14 45L15 45L15 44L16 44L16 42L17 42L17 43L18 43L18 44L20 44L20 45L21 45L21 42L24 42L24 41L25 41L25 42L26 42L26 43L25 43L25 44L24 44L24 43L22 43L22 45L23 45L23 44L24 44L24 45L27 45L27 44L26 44L26 43L29 43L29 44L28 44L28 45L29 45L29 44L31 44L31 45L32 45L32 44L34 44L34 45L35 45L35 44L36 44L36 45L39 45L39 44L40 44L40 41L41 41L41 40L42 40L42 41L44 41L44 42L45 42L45 41L44 41L44 40L43 40L43 38L42 38L42 34L44 34L44 35L45 35L45 31L43 31L43 30L42 30L42 29L43 29L43 28L44 28L44 30L45 30L45 27L44 27L44 25L45 25L45 24L44 24L44 23L45 23L45 19L44 19L44 18L45 18L45 17L43 17L43 16L44 16L44 11L45 11L45 9L42 9L42 10L41 10L41 11L43 11L43 13L42 13L42 12L41 12L41 13L40 13L40 12L39 12L39 13L38 13L38 16L39 16L39 13L40 13L40 16L42 16L42 17L41 17L41 19L40 19L40 18L38 18L38 17L37 17L37 15L34 15L34 14L33 14L33 15L32 15L32 14L30 14L30 15L29 15L29 14L25 14L25 16L24 16L24 14L23 14L23 15L21 15L21 16L22 16L22 18L21 18L21 17L17 17L17 18L14 18L14 16L16 16L16 14L15 14L15 15L14 15L14 14L13 14L13 15L12 15L12 13L14 13L14 12L15 12L15 11L16 11L16 13L17 13L17 15L20 15L20 14L21 14L21 13L20 13L20 14L18 14L18 11L16 11L16 7L17 7L17 8L19 8L19 9L17 9L17 10L19 10L19 9L20 9L20 10L21 10L21 11L19 11L19 12L21 12L21 11L22 11L22 12L23 12L23 13L24 13L24 12L25 12L25 13L30 13L30 11L31 11L31 13L32 13L32 12L33 12L33 13L34 13L34 12L33 12L33 10L32 10L32 11L31 11L31 9L32 9L32 7L33 7L33 9L34 9L34 8L35 8L35 9L36 9L36 10L34 10L34 11L35 11L35 12L36 12L36 11L37 11L37 12L38 12L38 11L37 11L37 10L38 10L38 9L39 9L39 11L40 11L40 9L41 9L41 8L40 8L40 9L39 9L39 8L37 8L37 6L36 6L36 7L35 7L35 6L34 6L34 5L37 5L37 3L36 3L36 1L37 1L37 0L36 0L36 1L35 1L35 4L34 4L34 3L33 3L33 4L31 4L31 5L30 5L30 3L31 3L31 1L32 1L32 2L33 2L33 1L34 1L34 0L33 0L33 1L32 1L32 0L28 0L28 1L27 1L27 0L25 0L25 1L23 1L23 0L22 0L22 1L21 1L21 3L20 3L20 5L19 5L19 2L20 2L20 0L19 0L19 2L18 2L18 0L14 0L14 1L13 1L13 3L14 3L14 4L17 4L17 6L16 6L16 7L15 7L15 6L14 6L14 7L13 7L13 6L12 6L12 7L13 7L13 8L10 8L10 7L11 7L11 4L12 4L12 5L13 5L13 4L12 4L12 3L11 3L11 1L12 1L12 0L11 0L11 1L10 1L10 0ZM16 1L16 2L17 2L17 1ZM26 1L26 2L27 2L27 3L26 3L26 4L25 4L25 3L24 3L24 4L25 4L25 5L26 5L26 4L27 4L27 5L29 5L29 1L28 1L28 2L27 2L27 1ZM14 2L14 3L15 3L15 2ZM22 2L22 3L21 3L21 4L23 4L23 2ZM17 3L17 4L18 4L18 3ZM27 3L27 4L28 4L28 3ZM21 5L21 8L24 8L24 5ZM32 5L32 6L31 6L31 7L30 7L30 6L29 6L29 7L28 7L28 6L27 6L27 9L29 9L29 10L30 10L30 8L31 8L31 7L32 7L32 6L33 6L33 7L34 7L34 6L33 6L33 5ZM17 6L17 7L18 7L18 6ZM19 6L19 7L20 7L20 6ZM22 6L22 7L23 7L23 6ZM25 6L25 8L26 8L26 6ZM9 8L9 10L8 10L8 9L6 9L6 10L8 10L8 11L11 11L11 12L12 12L12 9L10 9L10 8ZM13 8L13 10L14 10L14 11L13 11L13 12L14 12L14 11L15 11L15 10L14 10L14 9L15 9L15 8ZM21 9L21 10L24 10L24 11L26 11L26 12L27 12L27 11L28 11L28 12L29 12L29 11L28 11L28 10L27 10L27 11L26 11L26 10L24 10L24 9ZM43 10L43 11L44 11L44 10ZM2 13L2 15L4 15L4 16L5 16L5 17L4 17L4 19L5 19L5 20L7 20L7 19L9 19L9 18L11 18L11 17L13 17L13 16L14 16L14 15L13 15L13 16L12 16L12 15L10 15L10 16L11 16L11 17L8 17L8 18L7 18L7 17L6 17L6 16L7 16L7 15L6 15L6 16L5 16L5 15L4 15L4 14L5 14L5 13L4 13L4 14L3 14L3 13ZM35 13L35 14L36 14L36 13ZM41 14L41 15L43 15L43 14ZM28 15L28 16L26 16L26 18L23 18L23 19L20 19L20 18L19 18L19 19L20 19L20 20L18 20L18 23L19 23L19 24L17 24L17 25L19 25L19 24L20 24L20 20L23 20L23 19L24 19L24 20L27 20L27 22L26 22L26 23L27 23L27 24L26 24L26 26L24 26L24 27L22 27L22 26L20 26L20 27L18 27L18 26L16 26L16 25L15 25L15 26L14 26L14 24L15 24L15 22L14 22L14 20L13 20L13 19L14 19L14 18L12 18L12 19L11 19L11 20L13 20L13 21L12 21L12 22L14 22L14 24L13 24L13 26L12 26L12 27L11 27L11 25L12 25L12 23L11 23L11 25L10 25L10 22L9 22L9 25L5 25L5 26L2 26L2 28L3 28L3 29L4 29L4 28L7 28L7 27L8 27L8 26L10 26L10 27L11 27L11 28L12 28L12 29L10 29L10 31L9 31L9 32L13 32L13 31L14 31L14 29L15 29L15 30L16 30L16 32L18 32L18 33L19 33L19 30L20 30L20 29L24 29L24 27L25 27L25 29L26 29L26 30L27 30L27 31L29 31L29 30L30 30L30 29L29 29L29 28L30 28L30 27L29 27L29 26L30 26L30 25L29 25L29 24L31 24L31 23L32 23L32 24L33 24L33 25L31 25L31 27L32 27L32 26L34 26L34 27L33 27L33 29L32 29L32 28L31 28L31 30L33 30L33 29L35 29L35 31L32 31L32 33L34 33L34 34L33 34L33 36L32 36L32 38L31 38L31 36L30 36L30 39L28 39L28 38L29 38L29 36L27 36L27 35L26 35L26 36L25 36L25 37L26 37L26 36L27 36L27 37L28 37L28 38L26 38L26 39L28 39L28 40L30 40L30 39L31 39L31 40L32 40L32 38L33 38L33 39L34 39L34 40L36 40L36 39L35 39L35 38L36 38L36 36L34 36L34 34L36 34L36 35L37 35L37 34L38 34L38 33L39 33L39 34L41 34L41 30L40 30L40 32L39 32L39 28L41 28L41 29L42 29L42 27L43 27L43 22L44 22L44 21L41 21L41 24L42 24L42 25L39 25L39 26L38 26L38 25L37 25L37 26L38 26L38 27L39 27L39 28L38 28L38 29L37 29L37 30L38 30L38 31L37 31L37 34L36 34L36 29L35 29L35 28L34 28L34 27L35 27L35 26L36 26L36 25L35 25L35 24L36 24L36 23L32 23L32 22L30 22L30 21L33 21L33 19L34 19L34 22L35 22L35 21L36 21L36 20L39 20L39 19L36 19L36 18L37 18L37 17L36 17L36 16L34 16L34 15L33 15L33 16L34 16L34 17L32 17L32 15L30 15L30 16L31 16L31 18L32 18L32 19L30 19L30 18L29 18L29 17L28 17L28 16L29 16L29 15ZM5 17L5 19L7 19L7 18L6 18L6 17ZM34 17L34 19L35 19L35 20L36 20L36 19L35 19L35 17ZM26 18L26 19L29 19L29 20L28 20L28 21L30 21L30 19L29 19L29 18ZM42 18L42 19L41 19L41 20L44 20L44 19L43 19L43 18ZM16 19L16 20L17 20L17 19ZM5 21L5 24L8 24L8 21ZM16 21L16 22L17 22L17 21ZM21 21L21 24L24 24L24 21ZM37 21L37 24L40 24L40 21ZM6 22L6 23L7 23L7 22ZM22 22L22 23L23 23L23 22ZM28 22L28 24L29 24L29 22ZM38 22L38 23L39 23L39 22ZM28 25L28 26L29 26L29 25ZM6 26L6 27L7 27L7 26ZM13 26L13 27L12 27L12 28L13 28L13 27L14 27L14 28L15 28L15 29L16 29L16 30L17 30L17 31L18 31L18 30L19 30L19 29L20 29L20 28L21 28L21 27L20 27L20 28L17 28L17 29L16 29L16 26L15 26L15 27L14 27L14 26ZM40 26L40 27L41 27L41 26ZM3 27L3 28L4 28L4 27ZM27 27L27 28L26 28L26 29L27 29L27 30L28 30L28 27ZM8 28L8 29L9 29L9 28ZM0 29L0 32L1 32L1 29ZM17 29L17 30L18 30L18 29ZM12 30L12 31L13 31L13 30ZM3 31L3 34L4 34L4 35L1 35L1 36L0 36L0 37L1 37L1 36L3 36L3 37L5 37L5 34L4 34L4 31ZM6 31L6 32L8 32L8 31ZM42 31L42 32L43 32L43 33L44 33L44 32L43 32L43 31ZM25 32L25 33L26 33L26 32ZM34 32L34 33L35 33L35 32ZM1 33L1 34L2 34L2 33ZM31 34L31 35L32 35L32 34ZM22 35L22 36L23 36L23 35ZM33 36L33 38L34 38L34 36ZM8 37L8 39L10 39L10 37ZM21 37L21 40L24 40L24 37ZM37 37L37 40L40 40L40 37ZM22 38L22 39L23 39L23 38ZM38 38L38 39L39 39L39 38ZM17 39L17 41L18 41L18 43L19 43L19 42L21 42L21 41L18 41L18 39ZM11 40L11 41L12 41L12 42L13 42L13 43L12 43L12 44L13 44L13 43L14 43L14 42L13 42L13 40ZM9 41L9 42L10 42L10 41ZM27 41L27 42L28 42L28 41ZM30 41L30 42L29 42L29 43L30 43L30 42L32 42L32 41ZM33 41L33 42L34 42L34 41ZM35 42L35 43L34 43L34 44L35 44L35 43L36 43L36 44L38 44L38 42L37 42L37 43L36 43L36 42ZM41 42L41 43L43 43L43 42ZM31 43L31 44L32 44L32 43ZM44 43L44 44L45 44L45 43ZM42 44L42 45L43 45L43 44ZM0 0L0 7L7 7L7 0ZM1 1L1 6L6 6L6 1ZM2 2L2 5L5 5L5 2ZM38 0L38 7L45 7L45 0ZM39 1L39 6L44 6L44 1ZM40 2L40 5L43 5L43 2ZM0 38L0 45L7 45L7 38ZM1 39L1 44L6 44L6 39ZM2 40L2 43L5 43L5 40Z" fill="#000000"/></g></g></svg>
